<?xml version="1.0" encoding="UTF-8"?>
<svg id="Layer_2" data-name="Layer 2" xmlns="http://www.w3.org/2000/svg" xmlns:xlink="http://www.w3.org/1999/xlink" viewBox="0 0 1196.1 450.58">
  <defs>
    <style>
      .cls-1 {
        fill: url(#linear-gradient-15);
      }

      .cls-2 {
        fill: url(#linear-gradient-13);
      }

      .cls-3 {
        fill: url(#linear-gradient-2);
      }

      .cls-4 {
        fill: url(#linear-gradient-10);
      }

      .cls-5 {
        fill: url(#linear-gradient-12);
      }

      .cls-6 {
        fill: #92489a;
      }

      .cls-7 {
        fill: url(#linear-gradient-4);
      }

      .cls-8 {
        fill: url(#linear-gradient-3);
      }

      .cls-9 {
        fill: url(#linear-gradient-5);
      }

      .cls-10 {
        fill: url(#linear-gradient-22);
      }

      .cls-11 {
        fill: url(#linear-gradient-8);
      }

      .cls-12 {
        fill: url(#linear-gradient-14);
      }

      .cls-13 {
        fill: url(#linear-gradient-20);
      }

      .cls-14 {
        fill: url(#linear-gradient-17);
      }

      .cls-15 {
        fill: url(#linear-gradient-7);
      }

      .cls-16 {
        fill: url(#linear-gradient-9);
      }

      .cls-17 {
        fill: url(#linear-gradient-11);
      }

      .cls-18 {
        fill: url(#linear-gradient-19);
      }

      .cls-19 {
        fill: url(#linear-gradient-6);
      }

      .cls-20 {
        fill: url(#linear-gradient-21);
      }

      .cls-21 {
        fill: url(#linear-gradient-16);
      }

      .cls-22 {
        fill: url(#linear-gradient);
      }

      .cls-23 {
        fill: url(#linear-gradient-18);
      }
    </style>
    <linearGradient id="linear-gradient" x1="239.92" y1="96.35" x2="78.4" y2="78.24" gradientUnits="userSpaceOnUse">
      <stop offset="0" stop-color="#8440ef"/>
      <stop offset=".17" stop-color="#9a4ae2" stop-opacity=".81"/>
      <stop offset=".58" stop-color="#d064c5" stop-opacity=".38"/>
      <stop offset=".87" stop-color="#f174b3" stop-opacity=".11"/>
      <stop offset="1" stop-color="#ff7bac" stop-opacity="0"/>
    </linearGradient>
    <linearGradient id="linear-gradient-2" x1="294.51" y1="327.38" x2="111.68" y2="306.88" xlink:href="#linear-gradient"/>
    <linearGradient id="linear-gradient-3" x1="97.12" y1="220.52" x2=".16" y2="209.65" xlink:href="#linear-gradient"/>
    <linearGradient id="linear-gradient-4" x1="278.85" y1="308.33" x2="188.32" y2="298.18" xlink:href="#linear-gradient"/>
    <linearGradient id="linear-gradient-5" x1="270.87" y1="259.42" x2="268.84" y2="259.2" xlink:href="#linear-gradient"/>
    <linearGradient id="linear-gradient-6" x1="273.71" y1="261.09" x2="270.7" y2="260.75" xlink:href="#linear-gradient"/>
    <linearGradient id="linear-gradient-7" x1="338.87" y1="358.43" x2="225.51" y2="345.72" xlink:href="#linear-gradient"/>
    <linearGradient id="linear-gradient-8" x1="450.56" y1="228.51" x2="345.03" y2="216.68" xlink:href="#linear-gradient"/>
    <linearGradient id="linear-gradient-9" x1="142.08" y1="124.66" x2="336.29" y2="124.66" xlink:href="#linear-gradient"/>
    <linearGradient id="linear-gradient-10" x1="140.86" y1="449.09" x2="270.72" y2="207.91" gradientUnits="userSpaceOnUse">
      <stop offset="0" stop-color="#7a40fd" stop-opacity="0"/>
      <stop offset="1" stop-color="#d43f7c"/>
    </linearGradient>
    <linearGradient id="linear-gradient-11" x1="103.89" y1="254.13" x2="99.19" y2="253.6" gradientUnits="userSpaceOnUse">
      <stop offset="0" stop-color="#d43f7c"/>
      <stop offset=".07" stop-color="#d7437f" stop-opacity=".92"/>
      <stop offset=".53" stop-color="#ec6197" stop-opacity=".43"/>
      <stop offset=".85" stop-color="#f973a6" stop-opacity=".12"/>
      <stop offset="1" stop-color="#ff7bac" stop-opacity="0"/>
    </linearGradient>
    <linearGradient id="linear-gradient-12" x1="109.52" y1="258.82" x2="101.12" y2="257.87" xlink:href="#linear-gradient-11"/>
    <linearGradient id="linear-gradient-13" x1="351.55" y1="214.72" x2="247.14" y2="203.02" xlink:href="#linear-gradient-11"/>
    <linearGradient id="linear-gradient-14" x1="340.15" y1="190.06" x2="339.64" y2="190" xlink:href="#linear-gradient-11"/>
    <linearGradient id="linear-gradient-15" x1="223.56" y1="213.56" x2="228.86" y2="-76.64" gradientUnits="userSpaceOnUse">
      <stop offset=".22" stop-color="#d43f7c" stop-opacity=".6"/>
      <stop offset="1" stop-color="#7a40fd" stop-opacity="0"/>
    </linearGradient>
    <linearGradient id="linear-gradient-16" x1="100.42" y1="253.9" x2="103.28" y2="253.9" xlink:href="#linear-gradient-11"/>
    <linearGradient id="linear-gradient-17" x1="103.28" y1="258.41" x2="108.46" y2="258.41" xlink:href="#linear-gradient-11"/>
    <linearGradient id="linear-gradient-18" x1="112.21" y1="238.85" x2="171.23" y2="238.85" xlink:href="#linear-gradient-11"/>
    <linearGradient id="linear-gradient-19" x1="572.75" y1="221.29" x2="1128.17" y2="580.38" gradientUnits="userSpaceOnUse">
      <stop offset="0" stop-color="#7a40fd"/>
      <stop offset="1" stop-color="#d43f7c"/>
    </linearGradient>
    <linearGradient id="linear-gradient-20" x1="637.44" y1="121.24" x2="1192.86" y2="480.33" xlink:href="#linear-gradient-19"/>
    <linearGradient id="linear-gradient-21" x1="694.64" y1="32.76" x2="1250.06" y2="391.85" xlink:href="#linear-gradient-19"/>
    <linearGradient id="linear-gradient-22" x1="699.38" y1="25.44" x2="1254.8" y2="384.52" xlink:href="#linear-gradient-19"/>
  </defs>
  <g id="Layer_1-2" data-name="Layer 1">
    <path class="cls-22" d="M111.93,105.96c6.98-15.66,17.13-29.91,29.91-41.49,27.13-2.49,54.86,2.38,80.32,15.63,1.53-.08,2.95-.25,4.33-.66-1.98.91-4.01,1.89-6.07,2.94-.35.18-.71.36-1.06.55-1.99,1.03-4,2.14-6.03,3.33-.54.32-1.09.64-1.63.97-.55.33-1.09.66-1.64,1-.74.45-1.49.93-2.23,1.41-.89.59-1.78,1.18-2.67,1.79-.55.38-1.09.75-1.63,1.14-.54.38-1.08.77-1.62,1.17-.79.58-1.57,1.17-2.35,1.77-1.31,1.02-2.63,2.09-3.92,3.19-.61.52-1.21,1.04-1.81,1.57h0c-.75.68-1.49,1.36-2.23,2.05-.74.7-1.47,1.41-2.19,2.13,2.23-5.27-10.98-4.85-13.7-5.27-23.3-3.12-44.84-.35-63.77,6.78Z"/>
    <path class="cls-3" d="M301.25,267.25s-.08.3-.25.84c-2.18,7.02-4.66,13.75-7.52,20.3-.05.24-.17.42-.29.67-.85,1.93-1.76,3.87-2.73,5.75-.72,1.46-1.52,2.98-2.36,4.49-2.68,4.91-5.83,10.12-9.53,15.38-.17.3-.42.67-.67.97-.71,1.04-1.51,2.06-2.35,3.15-4.17,5.71-9.08,11.46-14.79,16.92,0,.05-.05.05-.05.05-.77.76-1.56,1.52-2.36,2.27-.48.46-.97.91-1.46,1.35-.65.6-1.31,1.19-1.99,1.78-1.93,1.7-3.95,3.36-6.04,4.98-.59.46-1.19.92-1.8,1.37-.06.04-.12.09-.18.14-.63.47-1.28.94-1.93,1.4-.62.45-1.25.9-1.89,1.33-.09.07-.18.13-.27.19-.6.41-1.2.82-1.81,1.22-.12.08-.24.16-.36.23-.54.37-1.09.72-1.65,1.07-.27.17-.54.35-.82.51-.51.33-1.03.65-1.55.96-4.05,2.45-8.33,4.74-12.85,6.83l-10.2,4.21-.05.03-1.21.49c-26.17,9.81-54.02,12.84-80.88,8.86-9.87-11.57-17.73-25.11-22.85-40.22,30.67,12.3,65.78,11.65,96.44-2.19,6.48,3.69,13.98,5.8,21.95,5.8,24.66,0,44.66-20,44.66-44.59,0-8.46-2.36-16.38-6.45-23.13,1.59-3.82,2.81-7.51,3.54-10.93.08-.37.17-.79.17-1.21t.02.01c.15.11.3.23.45.33.32.25.64.48.97.71.11.08.22.16.33.23.26.19.52.37.79.54.11.08.23.15.34.22.05.03.1.06.15.09.05.03.09.06.14.09.19.13.38.25.58.37.24.15.48.3.73.44.6.37,1.22.71,1.84,1.02.47.26.96.5,1.45.74.05.03.1.05.15.06.49.24.98.46,1.48.67.45.2.91.39,1.37.57.5.2,1,.38,1.51.56.12.04.25.08.38.13.46.16.93.31,1.4.45.61.18,1.23.35,1.85.51.58.14,1.17.28,1.77.4.59.13,1.19.24,1.8.34,1.2.2,2.43.35,3.66.46,1.24.11,2.49.16,3.76.16.91,0,1.81-.03,2.72-.1.45-.02.91-.06,1.37-.11.45-.05.9-.1,1.36-.16h.01Z"/>
    <path class="cls-8" d="M68.39,308.05c1.5,17.33,6,34.44,13.25,50.56-2.61-1.38-5.19-2.86-7.73-4.41C-12.72,301.24-24.85,178.54,46.3,107.54c1.68-1.77,9.67-7.87,12.23-9.83,9.16-7.09,18.94-13.14,29.15-18.07-9.04,16.35-14.99,34.25-17.63,52.82-43.06,41.5-54.33,112.44-8.74,167.73,2.27,2.75,4.63,5.37,7.08,7.86Z"/>
    <path class="cls-7" d="M265.16,270.66c4.09,6.75,6.45,14.67,6.45,23.13,0,24.59-20,44.59-44.66,44.59-7.97,0-15.47-2.11-21.95-5.8,10.65-4.79,20.76-11.18,29.96-19.16,10.81-9.36,23.66-27.1,30.2-42.76Z"/>
    <path class="cls-9" d="M270.31,259.57c-.33-.23-.65-.46-.97-.71.42.33.86.64,1.3.94-.11-.07-.22-.15-.33-.23Z"/>
    <path class="cls-19" d="M271.43,260.34c.63.43,1.28.83,1.94,1.21-.54-.32-1.07-.65-1.6-.99-.11-.07-.23-.14-.34-.22Z"/>
    <path class="cls-15" d="M341.58,334.25c-4.75,14.69-12.35,28.57-22.78,40.72h0c-27.01,3.87-56.93,1.53-79.6-8-6.55-2.72-7.45-6.18-15.45-5.57,4.52-2.09,8.8-4.38,12.85-6.83.52-.31,1.04-.63,1.55-.96.28-.16.55-.34.82-.51.56-.35,1.11-.7,1.65-1.07.12-.07.24-.15.36-.23.61-.4,1.21-.81,1.81-1.22.09-.06.18-.12.27-.19.64-.43,1.27-.88,1.89-1.33.65-.46,1.3-.93,1.93-1.4.06-.05.12-.1.18-.14.61-.45,1.21-.91,1.8-1.37,2.09-1.62,4.11-3.28,6.04-4.98.68-.59,1.34-1.18,1.99-1.78.49-.44.98-.89,1.46-1.35.8-.75,1.59-1.51,2.36-2.27-.85,2.06-.61,3.82,1.75,4.73,27.03,6.63,54.73,3.97,79.12-6.25Z"/>
    <path class="cls-11" d="M367.39,359.17c7.13-16.03,11.37-33,12.77-50.26,9.72-9.37,17.97-20.43,24.26-32.94,15.88-31.63,16.54-70.52,3.46-103.36-6.53-16.39-16.64-30.63-29.11-42.19-1.66-10.97-4.34-21.44-7.98-30.7-2.92-7.46-6.36-14.56-10.26-21.28,29.03,13.24,54.06,35.63,70.73,65.99,42.53,77.37,12.01,174.33-63.87,214.74Z"/>
    <path class="cls-16" d="M336.29,104.57c-25.04-9.08-52.97-10.27-79.1-1.52-6.63,2.21-13.11,5.05-19.33,8.44,0,0,0,0,0,.01-23.26,12.67-42.89,33.07-53.2,57.38v.02c-.85,1.99-1.63,3.98-2.34,6.01-.91,2.55-2.31,6.61-2.43,9.94-6.72-4.12-14.6-6.49-23.08-6.49-5.15,0-10.12.91-14.72,2.55,2.06-.97,3.81-1.82,4.3-2.55,5.75-24.05,18.54-45.56,34.47-64.16,2.67-3.51,5.52-6.72,8.55-9.75.72-.72,1.45-1.43,2.19-2.13.74-.69,1.48-1.37,2.23-2.04h.01c.6-.54,1.2-1.06,1.81-1.58,1.29-1.1,2.61-2.17,3.92-3.19.78-.6,1.56-1.19,2.35-1.77.54-.4,1.08-.79,1.62-1.17.54-.39,1.08-.76,1.63-1.14.89-.61,1.78-1.2,2.67-1.79.74-.48,1.49-.96,2.23-1.41.55-.34,1.09-.67,1.64-1,.54-.33,1.09-.65,1.63-.97,2.03-1.19,4.04-2.3,6.03-3.33.35-.19.71-.37,1.06-.55,2.06-1.05,4.09-2.03,6.07-2.94.02,0,.03-.01.05-.02,15.75-7.15,28.59-9.81,30.11-10.05,16.85-4.24,33.9-5.68,50.56-4.48,12.31,11.2,22.14,24.75,29.08,39.68Z"/>
    <path class="cls-4" d="M380.16,308.91c-1.4,17.26-5.64,34.23-12.77,50.26h0c-2.66,5.99-5.72,11.83-9.19,17.51-52.97,86.62-175.67,98.76-246.67,27.61-1.76-1.69-7.86-9.68-9.82-12.23-8.08-10.44-14.81-21.68-20.07-33.45-7.25-16.12-11.75-33.23-13.25-50.56-2.33-26.91,2.57-54.39,15.7-79.63-.07-1.54-.24-2.97-.67-4.36.68,1.47,1.39,2.97,2.14,4.48,0,.03.02.05.03.07.76,1.54,1.57,3.09,2.41,4.65,2.55,4.7,5.49,9.52,8.88,14.24.57.79,1.14,1.57,1.73,2.35.59.78,1.2,1.56,1.81,2.33.92,1.16,1.87,2.31,2.86,3.45,1.63,1.89,3.35,3.75,5.15,5.55-5.26-2.19-4.84,10.99-5.26,13.71-2.9,21.72-.69,41.91,5.39,59.88,5.12,15.11,12.98,28.65,22.85,40.22,40.61,47.57,115.18,61.77,172.78,14.29,5.37-4.42,10.23-9.2,14.61-14.3h0c10.43-12.16,18.03-26.04,22.78-40.73h0c9.54-29.51,7.58-62.29-6.05-90.93,3.14-6.1,4.91-13.02,4.91-20.36,0-24.6-19.99-44.59-44.65-44.59-8.37,0-16.21,2.32-22.91,6.34h0c-3.18-1.25-6.26-2.22-9.14-2.83-.37-.07-.79-.17-1.22-.17h.01c.27-.36.54-.72.8-1.09.16-.22.32-.45.48-.68.59-.84,1.15-1.71,1.68-2.6.16-.26.31-.52.44-.78.39-.67.76-1.35,1.1-2.05.09-.18.18-.35.26-.53.01-.01.01-.02.02-.03.18-.38.36-.76.52-1.15.04-.07.07-.15.1-.23.48-1.08.91-2.19,1.3-3.32.21-.62.41-1.25.6-1.88.12-.39.23-.79.32-1.19.03-.06.04-.12.05-.18.05-.16.09-.33.13-.5.01-.01.01-.03.01-.05.11-.41.2-.83.29-1.25.03-.12.06-.25.08-.38.07-.33.14-.66.19-1,.03-.13.05-.26.07-.4.04-.21.08-.42.1-.63,0-.03.02-.07.02-.1.04-.24.08-.48.11-.72.02-.15.04-.31.06-.47.02-.15.03-.29.05-.43.01-.07.02-.15.03-.23.04-.33.07-.67.1-1,0-.04.01-.07.01-.1.01-.13.02-.26.03-.4.01-.08.01-.15.02-.22.04-.48.06-.95.08-1.43.04-.63.05-1.26.05-1.9,0-.9-.03-1.81-.1-2.72-.06-.91-.15-1.82-.27-2.74,0,0,.29.08.84.25,7.02,2.19,13.74,4.67,20.29,7.52.25.05.42.17.67.3,1.94.84,3.87,1.76,5.76,2.73,1.46.72,2.97,1.51,4.49,2.35,4.91,2.68,10.12,5.83,15.38,9.53.3.17.67.42.97.67,1.04.72,2.06,1.51,3.15,2.36,5.7,4.16,11.46,9.08,16.92,14.78.05,0,.05.05.05.05h0c.11.12.21.22.32.33.2.2.39.4.59.61.3.31.6.62.91.94,6.63,6.99,12.89,15.11,18.29,24.44.98,1.69,1.93,3.42,2.85,5.2.92,1.77,1.81,3.58,2.66,5.44h0s4.21,10.2,4.21,10.2l.02.05.5,1.22c8.56,22.84,11.95,46.97,10.03,70.61Z"/>
    <path class="cls-17" d="M103.28,255.63c-.99-1.14-1.94-2.29-2.86-3.45.93,1.16,1.88,2.31,2.86,3.45Z"/>
    <path class="cls-5" d="M108.46,261.19h-.03c-1.8-1.81-3.52-3.67-5.15-5.56,1.64,1.89,3.37,3.75,5.18,5.56Z"/>
    <path class="cls-2" d="M340.44,222.96c0,7.34-1.77,14.26-4.91,20.36-4.66-9.82-10.7-19.15-18.12-27.7-9.71-11.22-28.45-24.63-44.53-30.91,6.7-4.02,14.54-6.34,22.91-6.34,24.66,0,44.65,19.99,44.65,44.59Z"/>
    <path class="cls-12" d="M340.09,190.2c-.11-.11-.21-.21-.32-.32,0,0,0,.01.02.01.1.1.2.2.3.31Z"/>
    <path class="cls-6" d="M271.61,293.79c0,24.59-20,44.59-44.66,44.59-7.97,0-15.47-2.11-21.95-5.8-4.89-2.79-9.2-6.48-12.7-10.86-.12-.07-.18-.13-.25-.25-1.15-1.39-2.24-2.91-3.15-4.54-.54-.85-1.03-1.7-1.45-2.55-.24-.36-.42-.72-.55-1.15-.66-1.51-1.33-3.21-1.99-4.72-1.64-4.61-2.55-9.58-2.55-14.72,0-8.49,2.36-16.36,6.48-23.09,7.76-12.9,21.94-21.57,38.11-21.57s30.38,8.63,38.21,21.53c4.09,6.75,6.45,14.67,6.45,23.13Z"/>
    <path class="cls-6" d="M271.61,154.8c0,.63,0,1.26-.04,1.89-.02.48-.05.95-.08,1.43,0,.07,0,.14-.02.22,0,.14-.02.27-.03.4,0,.03-.01.06-.01.1-.03.33-.06.67-.1,1-.01.08-.02.16-.03.23-.02.14-.03.28-.05.43-.02.16-.04.32-.06.47-.03.24-.07.48-.11.72,0,.03-.01.07-.02.1-.03.21-.06.42-.1.63-.02.14-.04.27-.07.4-.05.34-.12.67-.19,1-.02.13-.05.26-.08.38-.09.42-.18.84-.29,1.25,0,.02,0,.04-.01.05-.04.17-.08.34-.13.5-.01.06-.02.12-.05.18-.09.4-.2.8-.32,1.19-.19.63-.39,1.26-.6,1.88-.39,1.13-.82,2.24-1.3,3.32-.03.08-.06.16-.1.23-.17.39-.35.77-.52,1.15,0,.01,0,.02-.02.03-.08.18-.17.35-.26.53-.34.7-.71,1.38-1.1,2.05-.14.26-.29.52-.44.78-.53.89-1.09,1.76-1.68,2.6-.16.23-.32.46-.48.68-.26.37-.53.73-.8,1.08h-.01c-8.12,10.79-21.02,17.69-35.56,17.69-19.67,0-36.4-12.78-42.3-30.49v-.02c-1.49-4.43-2.29-9.16-2.29-14.08,0-24.66,19.99-44.65,44.59-44.65,3.76,0,7.41.46,10.9,1.35,17.69,4.43,31.17,19.42,33.39,37.85.12.9.22,1.81.28,2.72.06.91.09,1.82.09,2.73Z"/>
    <path class="cls-1" d="M370.97,211.39c-2.73,6.54-6.18,7.45-5.57,15.45h0c-.85-1.87-1.74-3.68-2.66-5.45-.92-1.78-1.87-3.51-2.85-5.2-5.4-9.33-11.66-17.45-18.29-24.44-.31-.32-.61-.63-.91-.94-.2-.21-.39-.41-.59-.61-.11-.11-.21-.21-.32-.32,0,0,0,.01.02.01,2.05.84,3.8.58,4.7-1.77,7.04-28.68,3.62-58.12-8.2-83.55-6.94-14.93-16.77-28.48-29.08-39.68-8.06-7.34-17.18-13.67-27.24-18.73-31.63-15.87-70.53-16.54-103.36-3.45-13.04,5.19-24.72,12.65-34.77,21.76-12.78,11.58-22.93,25.83-29.91,41.49-12.04,27.07-14.62,58.36-4.88,87.43,1.9,5.71,4.27,11.3,7.05,16.71-1.23,4.07-1.89,8.39-1.89,12.86,0,24.66,19.99,44.65,44.59,44.65,5.05,0,9.9-.84,14.43-2.39,2.52,1.13,5.08,2.15,7.68,3.06,2.54.91,6.6,2.3,9.93,2.42-4.12,6.73-6.48,14.6-6.48,23.09,0,5.14.91,10.11,2.55,14.72-.97-2.06-1.82-3.82-2.55-4.3-24.05-5.76-45.56-18.54-64.16-34.48-3.52-2.66-6.73-5.51-9.76-8.54h.02c-1.81-1.81-3.54-3.67-5.18-5.56-.98-1.14-1.93-2.29-2.86-3.45-.61-.77-1.22-1.55-1.81-2.33-.59-.78-1.16-1.56-1.73-2.35-3.39-4.72-6.33-9.54-8.88-14.24-.84-1.56-1.65-3.11-2.41-4.65,0-.02-.02-.04-.03-.07-.75-1.51-1.46-3.01-2.14-4.48h0c-7.15-15.76-9.81-28.61-10.06-30.12-5.17-20.55-6.17-41.41-3.31-61.48,2.64-18.57,8.59-36.47,17.63-52.82,13.56-24.59,34.09-45.68,60.75-60.32,75.73-41.63,170.23-13.26,212.1,59.12,3.9,6.72,7.34,13.82,10.26,21.28,3.64,9.26,6.32,19.73,7.98,30.7,4.13,27.37,1.89,57.92-7.8,80.97Z"/>
    <path class="cls-21" d="M103.28,255.63c-.99-1.14-1.94-2.29-2.86-3.45.93,1.16,1.88,2.31,2.86,3.45Z"/>
    <path class="cls-14" d="M108.46,261.19h-.03c-1.8-1.81-3.52-3.67-5.15-5.56,1.64,1.89,3.37,3.75,5.18,5.56Z"/>
    <path class="cls-23" d="M171.23,265.22c-4.53,1.55-9.38,2.39-14.43,2.39-24.6,0-44.59-19.99-44.59-44.65,0-4.47.66-8.79,1.89-12.86,12.27,23.88,32.64,44.23,57.13,55.12Z"/>
    <path class="cls-6" d="M201.45,222.96c0,19.61-12.64,36.27-30.22,42.26-4.53,1.55-9.38,2.39-14.43,2.39-24.6,0-44.59-19.99-44.59-44.65,0-4.47.66-8.79,1.89-12.86,2.62-8.7,7.84-16.27,14.77-21.8.06-.12.12-.18.24-.24,1.39-1.15,2.91-2.24,4.54-3.15.85-.55,1.7-1.03,2.55-1.46.36-.24.73-.42,1.15-.54,1.51-.67,3.21-1.33,4.73-2,4.6-1.64,9.57-2.55,14.72-2.55,8.48,0,16.36,2.37,23.08,6.49,12.91,7.75,21.57,21.93,21.57,38.11Z"/>
    <path class="cls-6" d="M340.44,222.96c0,7.34-1.77,14.26-4.91,20.36-6.61,12.88-19.32,22.11-34.28,23.93h-.01c-.46.06-.91.11-1.36.16-.46.04-.91.08-1.37.11-.91.06-1.81.09-2.72.09-1.27,0-2.52-.05-3.76-.15-1.23-.11-2.46-.26-3.66-.46-.61-.1-1.21-.21-1.8-.34-.6-.12-1.19-.26-1.77-.4-.62-.16-1.24-.33-1.85-.51-.47-.14-.94-.29-1.4-.45-.13-.05-.26-.09-.38-.13-.51-.18-1.01-.36-1.51-.56-.46-.18-.92-.37-1.37-.57-.5-.21-.99-.43-1.48-.67-.05-.01-.1-.03-.15-.06-.49-.24-.98-.48-1.45-.74-.62-.31-1.24-.65-1.84-1.02-.44-.26-.88-.53-1.31-.81-.05-.03-.09-.06-.14-.09-.05-.03-.1-.06-.15-.09-.11-.07-.23-.14-.34-.22-.27-.17-.53-.35-.79-.54-.11-.07-.22-.15-.33-.23-.33-.23-.65-.46-.97-.71-.15-.1-.3-.22-.45-.33t-.02-.01c-10.78-8.13-17.68-21.03-17.68-35.56,0-16.22,8.7-30.44,21.68-38.25h0c6.7-4.02,14.54-6.34,22.91-6.34,24.66,0,44.65,19.99,44.65,44.59Z"/>
  </g>
  <g id="Layer_2-2" data-name="Layer 2">
    <g>
      <path class="cls-18" d="M511.32,311.62c-11.87-5.19-21.19-12.55-27.96-22.08-6.78-9.53-10.17-20.65-10.17-33.36h38.77c.84,9.53,4.61,17.37,11.28,23.51,6.67,6.15,16.05,9.22,28.12,9.22s22.24-3.02,29.23-9.06c6.99-6.04,10.49-13.82,10.49-23.36,0-7.41-2.17-13.45-6.51-18.11-4.34-4.66-9.75-8.26-16.21-10.8-6.46-2.54-15.41-5.29-26.85-8.26-14.41-3.81-26.11-7.68-35.11-11.6-9.01-3.92-16.68-10.01-23.04-18.27-6.35-8.26-9.53-19.27-9.53-33.05,0-12.71,3.18-23.83,9.53-33.36,6.36-9.53,15.25-16.84,26.69-21.93,11.44-5.09,24.68-7.63,39.72-7.63,21.39,0,38.93,5.35,52.59,16.05,13.66,10.7,21.24,25.37,22.72,44.01h-40.04c-.64-8.05-4.45-14.94-11.44-20.66-6.99-5.72-16.21-8.58-27.65-8.58-10.38,0-18.86,2.65-25.42,7.94-6.57,5.3-9.85,12.92-9.85,22.88,0,6.78,2.07,12.34,6.2,16.68,4.13,4.34,9.37,7.78,15.73,10.33,6.35,2.54,15.04,5.3,26.06,8.26,14.62,4.03,26.53,8.05,35.75,12.08,9.22,4.03,17.05,10.22,23.51,18.59,6.46,8.37,9.69,19.54,9.69,33.52,0,11.23-3.02,21.82-9.06,31.78-6.04,9.96-14.83,17.95-26.37,23.99-11.55,6.04-25.16,9.06-40.83,9.06-14.83,0-28.18-2.59-40.04-7.79Z"/>
      <path class="cls-13" d="M905.66,142.09l-54.34,175.09h-38.13l-35.27-129.33-35.27,129.33h-38.13l-54.66-175.09h36.86l36.54,140.77,37.18-140.77h37.81l35.59,140.13,36.23-140.13h35.59Z"/>
      <path class="cls-20" d="M934.58,112.22c-4.45-4.45-6.67-9.96-6.67-16.52s2.22-12.08,6.67-16.52c4.45-4.45,9.95-6.67,16.52-6.67s11.76,2.22,16.21,6.67c4.45,4.45,6.67,9.96,6.67,16.52s-2.22,12.07-6.67,16.52c-4.45,4.45-9.85,6.67-16.21,6.67s-12.08-2.22-16.52-6.67ZM968.9,142.09v175.09h-36.23v-175.09h36.23Z"/>
      <path class="cls-10" d="M1077.89,147.49c10.59-5.51,22.56-8.26,35.91-8.26,15.25,0,29.18,3.76,41.79,11.28,12.6,7.52,22.51,18.06,29.71,31.62,7.2,13.56,10.8,29.13,10.8,46.71s-3.6,33.32-10.8,47.19c-7.2,13.88-17.11,24.68-29.71,32.41-12.61,7.74-26.53,11.6-41.79,11.6-13.35,0-25.21-2.7-35.59-8.1-10.38-5.4-18.86-12.13-25.42-20.18v108.68h-36.23V142.09h36.23v25.74c6.14-8.05,14.51-14.83,25.1-20.34ZM1151.77,197.54c-4.98-8.79-11.55-15.46-19.7-20.02-8.16-4.55-16.9-6.83-26.22-6.83s-17.75,2.33-25.9,6.99c-8.16,4.66-14.73,11.44-19.7,20.34-4.98,8.9-7.47,19.38-7.47,31.46s2.49,22.62,7.47,31.62c4.97,9.01,11.54,15.84,19.7,20.5,8.15,4.66,16.79,6.99,25.9,6.99s18.06-2.38,26.22-7.15c8.15-4.77,14.72-11.7,19.7-20.81,4.97-9.11,7.47-19.7,7.47-31.78s-2.49-22.51-7.47-31.3Z"/>
    </g>
  </g>
</svg>