<?xml version="1.0" encoding="UTF-8"?>
<svg id="Layer_2" data-name="Layer 2" xmlns="http://www.w3.org/2000/svg" xmlns:xlink="http://www.w3.org/1999/xlink" viewBox="0 0 1397.83 407.66">
  <defs>
    <style>
      .cls-1 {
        fill: url(#radial-gradient-10);
      }

      .cls-2 {
        fill: #d33f7c;
      }

      .cls-3 {
        fill: url(#linear-gradient-2);
      }

      .cls-4 {
        fill: url(#radial-gradient-9);
      }

      .cls-5 {
        fill: url(#radial-gradient-14);
      }

      .cls-6 {
        fill: url(#radial-gradient-16);
      }

      .cls-7 {
        fill: url(#radial-gradient-18);
      }

      .cls-8 {
        fill: url(#linear-gradient-4);
      }

      .cls-9 {
        fill: url(#radial-gradient-5);
      }

      .cls-10 {
        fill: url(#radial-gradient);
      }

      .cls-11 {
        fill: url(#radial-gradient-3);
      }

      .cls-12 {
        fill: url(#linear-gradient-3);
      }

      .cls-13 {
        fill: url(#linear-gradient-5);
      }

      .cls-14 {
        fill: url(#radial-gradient-11);
      }

      .cls-15 {
        fill: url(#radial-gradient-8);
      }

      .cls-16 {
        fill: url(#radial-gradient-2);
      }

      .cls-17 {
        fill: url(#radial-gradient-4);
      }

      .cls-18 {
        fill: url(#radial-gradient-12);
      }

      .cls-19 {
        fill: url(#radial-gradient-19);
      }

      .cls-20 {
        fill: url(#linear-gradient-6);
      }

      .cls-21 {
        fill: url(#radial-gradient-15);
      }

      .cls-22 {
        fill: url(#radial-gradient-6);
      }

      .cls-23 {
        fill: url(#radial-gradient-7);
      }

      .cls-24 {
        fill: url(#radial-gradient-17);
      }

      .cls-25 {
        fill: url(#radial-gradient-13);
      }

      .cls-26 {
        fill: url(#linear-gradient);
      }
    </style>
    <radialGradient id="radial-gradient" cx="698.91" cy="206.17" fx="698.91" fy="206.17" r="514.8" gradientTransform="translate(0 410) scale(1 -1)" gradientUnits="userSpaceOnUse">
      <stop offset="0" stop-color="#040404"/>
      <stop offset=".21" stop-color="#0a050b"/>
      <stop offset="1" stop-color="#200c25"/>
    </radialGradient>
    <linearGradient id="linear-gradient" x1="665.12" y1="229.12" x2="1046.76" y2="79.82" gradientUnits="userSpaceOnUse">
      <stop offset="0" stop-color="#f1f2f9"/>
      <stop offset="1" stop-color="#43203c"/>
    </linearGradient>
    <linearGradient id="linear-gradient-2" x1="683.64" y1="276.46" x2="1065.28" y2="127.16" xlink:href="#linear-gradient"/>
    <linearGradient id="linear-gradient-3" x1="691.88" y1="297.53" x2="1073.53" y2="148.23" xlink:href="#linear-gradient"/>
    <linearGradient id="linear-gradient-4" x1="710.57" y1="345.3" x2="1092.21" y2="196" xlink:href="#linear-gradient"/>
    <linearGradient id="linear-gradient-5" x1="521.38" y1="180.96" x2="442.75" y2="156.96" gradientTransform="translate(0 410) scale(1 -1)" gradientUnits="userSpaceOnUse">
      <stop offset="0" stop-color="#fff"/>
      <stop offset=".17" stop-color="#fff" stop-opacity=".81"/>
      <stop offset=".58" stop-color="#d064c5" stop-opacity=".38"/>
      <stop offset=".87" stop-color="#f174b3" stop-opacity=".11"/>
      <stop offset="1" stop-color="#ff7bac" stop-opacity="0"/>
    </linearGradient>
    <linearGradient id="linear-gradient-6" x1="442.85" y1="215.83" x2="532.83" y2="215.83" gradientTransform="translate(0 410) scale(1 -1)" gradientUnits="userSpaceOnUse">
      <stop offset="0" stop-color="#fff"/>
      <stop offset=".17" stop-color="#fff" stop-opacity=".81"/>
      <stop offset=".58" stop-color="#d064c5" stop-opacity=".38"/>
      <stop offset=".87" stop-color="#f174b3" stop-opacity=".11"/>
      <stop offset="1" stop-color="#ff7bac" stop-opacity="0"/>
    </linearGradient>
    <radialGradient id="radial-gradient-2" cx="480.33" cy="208.25" fx="480.33" fy="208.25" r="121.94" gradientUnits="userSpaceOnUse">
      <stop offset="0" stop-color="#f1f2f9"/>
      <stop offset="1" stop-color="#43203c"/>
    </radialGradient>
    <radialGradient id="radial-gradient-3" cx="480.33" fx="480.33" r="121.94" xlink:href="#radial-gradient-2"/>
    <radialGradient id="radial-gradient-4" cx="480.33" fx="480.33" r="121.94" xlink:href="#radial-gradient-2"/>
    <radialGradient id="radial-gradient-5" cx="480.33" fx="480.33" r="121.94" xlink:href="#radial-gradient-2"/>
    <radialGradient id="radial-gradient-6" cx="480.33" fx="480.33" r="121.94" xlink:href="#radial-gradient-2"/>
    <radialGradient id="radial-gradient-7" cx="480.33" fx="480.33" r="121.94" xlink:href="#radial-gradient-2"/>
    <radialGradient id="radial-gradient-8" cx="480.33" fx="480.33" r="121.94" xlink:href="#radial-gradient-2"/>
    <radialGradient id="radial-gradient-9" cx="480.33" fx="480.33" r="121.94" xlink:href="#radial-gradient-2"/>
    <radialGradient id="radial-gradient-10" cx="480.33" fx="480.33" r="121.94" xlink:href="#radial-gradient-2"/>
    <radialGradient id="radial-gradient-11" cx="480.33" fx="480.33" r="121.94" xlink:href="#radial-gradient-2"/>
    <radialGradient id="radial-gradient-12" cx="480.33" fx="480.33" r="121.94" xlink:href="#radial-gradient-2"/>
    <radialGradient id="radial-gradient-13" cx="480.33" fx="480.33" r="121.94" xlink:href="#radial-gradient-2"/>
    <radialGradient id="radial-gradient-14" cx="480.33" fx="480.33" r="121.94" xlink:href="#radial-gradient-2"/>
    <radialGradient id="radial-gradient-15" cx="480.33" fx="480.33" r="121.94" xlink:href="#radial-gradient-2"/>
    <radialGradient id="radial-gradient-16" cx="480.33" fx="480.33" r="121.94" xlink:href="#radial-gradient-2"/>
    <radialGradient id="radial-gradient-17" r="121.94" xlink:href="#radial-gradient-2"/>
    <radialGradient id="radial-gradient-18" cx="480.33" fx="480.33" r="121.94" xlink:href="#radial-gradient-2"/>
    <radialGradient id="radial-gradient-19" cx="480.33" fx="480.33" r="121.94" xlink:href="#radial-gradient-2"/>
  </defs>
  <rect class="cls-10" width="1397.83" height="407.66"/>
  <g>
    <path class="cls-26" d="M677.15,274.29c-6.09-2.78-10.88-6.67-14.35-11.66-3.48-4.99-5.34-10.55-5.57-16.7h12.88c.58,5.92,3.19,11.11,7.83,15.57,4.64,4.47,11.42,6.7,20.36,6.7,8.24,0,14.76-2.12,19.58-6.35,4.81-4.23,7.22-9.6,7.22-16.1,0-5.22-1.34-9.42-4-12.61-2.67-3.19-5.98-5.57-9.92-7.13-3.95-1.57-9.4-3.28-16.36-5.13-8.12-2.2-14.56-4.35-19.31-6.44-4.76-2.09-8.82-5.33-12.18-9.74-3.37-4.41-5.05-10.38-5.05-17.92,0-6.26,1.62-11.86,4.87-16.79s7.83-8.79,13.75-11.57,12.7-4.18,20.36-4.18c11.25,0,20.33,2.76,27.23,8.27,6.9,5.51,10.88,12.61,11.92,21.32h-13.22c-.81-4.99-3.54-9.42-8.18-13.31s-10.91-5.83-18.79-5.83c-7.31,0-13.4,1.94-18.27,5.83s-7.31,9.19-7.31,15.92c0,5.11,1.33,9.22,4,12.35s6,5.51,10,7.13c4,1.63,9.42,3.37,16.27,5.22,7.89,2.2,14.27,4.38,19.14,6.52,4.87,2.15,8.99,5.42,12.35,9.83s5.05,10.33,5.05,17.75c0,5.69-1.51,11.08-4.52,16.18-3.02,5.11-7.48,9.22-13.4,12.35-5.92,3.13-12.99,4.7-21.23,4.7s-15.05-1.39-21.14-4.18h-.01Z"/>
    <path class="cls-3" d="M886.21,182.24l-29.75,95h-12.18l-26.27-79.69-26.27,79.69h-12.35l-29.75-95h12.35l23.66,82.65,26.62-82.65h12.18l26.27,82.82,23.49-82.82h12.01,0Z"/>
    <path class="cls-12" d="M902.56,161.71c-1.74-1.74-2.61-3.89-2.61-6.44s.87-4.67,2.61-6.35c1.74-1.68,3.83-2.52,6.26-2.52s4.52.84,6.26,2.52c1.74,1.68,2.61,3.8,2.61,6.35s-.87,4.7-2.61,6.44-3.83,2.61-6.26,2.61-4.52-.87-6.26-2.61ZM914.91,182.24v95h-12.18v-95h12.18Z"/>
    <path class="cls-8" d="M968.94,187.2c6.55-4.23,14.36-6.35,23.4-6.35s16.33,2,23.23,6c6.9,4,12.29,9.69,16.18,17.05,3.88,7.37,5.83,15.92,5.83,25.67s-1.94,18.33-5.83,25.75c-3.89,7.43-9.28,13.17-16.18,17.23-6.9,4.06-14.65,6.09-23.23,6.09s-16.7-2.12-23.32-6.35c-6.61-4.23-11.43-9.54-14.44-15.92v65.77h-12.01v-139.9h12.01v20.88c3.01-6.38,7.8-11.69,14.35-15.92h.01ZM1020.62,209.13c-3.07-5.74-7.28-10.12-12.61-13.14-5.34-3.01-11.37-4.52-18.1-4.52s-12.44,1.57-17.84,4.7c-5.39,3.13-9.66,7.6-12.79,13.4-3.13,5.8-4.7,12.53-4.7,20.18s1.57,14.39,4.7,20.18c3.13,5.8,7.4,10.27,12.79,13.4,5.39,3.13,11.34,4.7,17.84,4.7s12.76-1.54,18.1-4.61c5.33-3.07,9.54-7.54,12.61-13.4s4.61-12.67,4.61-20.45-1.54-14.7-4.61-20.45h0Z"/>
  </g>
  <path class="cls-13" d="M526.35,258.28c-15.26,24.96-50.62,28.46-71.08,7.96-.51-.49-2.27-2.79-2.83-3.52-10.47-13.53-13.07-31.78-5.08-47.15-.02-.44-.07-.86-.19-1.26,1.57,3.44,3.87,7.36,7.21,10.7-1.52-.65-1.4,3.16-1.52,3.95-4.43,33.16,32.49,53.93,57.93,32.96,15.18-12.5,16.59-35.31,3.81-50.04-3.35-3.87-10.44-8.66-15.47-9.72-.11-.02-.23-.05-.35-.05,1.66-2.15,2.62-4.84,2.62-7.76,0-.52-.04-1.04-.11-1.57,0,0,.09.02.24.07,2.02.63,3.96,1.34,5.85,2.17.07,0,.12.05.19.09.56.24,1.12.51,1.66.79.42.21.86.44,1.29.68,1.42.77,2.92,1.68,4.43,2.74.09.05.19.12.28.19.3.21.59.44.91.68,1.64,1.2,3.3,2.62,4.88,4.26.01,0,.01,0,.01,0,2.81,2.85,5.41,6.38,7.38,10.65l1.22,2.94h0l.14.36c4.94,13.18,3.91,27.86-3.44,39.88h.02Z"/>
  <path class="cls-2" d="M501.4,234.39c0,7.09-5.76,12.85-12.87,12.85-4.03,0-7.65-1.87-9.99-4.8-.03-.02-.05-.03-.07-.07-.33-.4-.65-.84-.91-1.31-.16-.24-.3-.49-.42-.73-.07-.1-.12-.21-.16-.33-.19-.44-.38-.93-.58-1.36-.47-1.33-.73-2.76-.73-4.24,0-2.44.68-4.71,1.87-6.65,2.23-3.72,6.32-6.22,10.98-6.22,7.11,0,12.87,5.76,12.87,12.87h.01Z"/>
  <path class="cls-2" d="M501.4,194.34c0,2.92-.96,5.6-2.62,7.75-2.34,3.11-6.06,5.1-10.25,5.1-7.09,0-12.85-5.76-12.85-12.85s5.76-12.87,12.85-12.87c6.58,0,11.99,4.94,12.76,11.3.07.52.1,1.05.1,1.57h0Z"/>
  <path class="cls-20" d="M530.03,210.65c-.79,1.89-1.78,2.15-1.61,4.45-1.97-4.28-4.57-7.8-7.39-10.65.59.24,1.1.17,1.36-.51,4-16.29-3.72-33.43-18.59-40.91-9.11-4.57-20.32-4.77-29.79-1-16.78,6.69-25.75,26.38-20.04,43.42,3.21,9.64,11.02,18.17,20.71,21.58.73.26,1.9.66,2.86.7-1.19,1.94-1.87,4.21-1.87,6.65,0,1.48.26,2.92.73,4.24-.28-.59-.52-1.1-.73-1.24-6.93-1.66-13.13-5.34-18.49-9.93-1.01-.77-1.94-1.59-2.81-2.46-3.33-3.33-5.64-7.26-7.21-10.7-2.06-4.54-2.83-8.24-2.9-8.68-4.94-19.64,3.32-40.26,21.63-50.32,23.85-13.11,54.16-2.13,64.08,23.17,3.67,9.32,3.96,22.87.05,32.18h.01Z"/>
  <g id="Layer_2-2" data-name="Layer 2-2">
    <path class="cls-16" d="M478.7,131.87c-7.22-5.44-5.91-19.11,2.17-23.29,15-7.77,28.85,8.98,19.15,21.48-4.96,6.39-15.15,6.46-21.33,1.81h0Z"/>
    <path class="cls-11" d="M396.62,254.05c9.25-11.93,30.39-1.71,24.02,14.99-7.81,20.45-37.95,2.98-24.02-14.99Z"/>
    <path class="cls-17" d="M499.81,299.46c11.33,9.16,1.59,29.57-14.34,24.51-12.33-3.92-13.76-20.95-1.89-26.34,5.32-2.41,11.6-1.91,16.22,1.82h.01Z"/>
    <path class="cls-9" d="M581.93,251.69c7.71,7.99,3.35,23.82-8.21,24.86-17.87,1.6-22.13-22.38-7.14-28.1,5.05-1.93,11.58-.67,15.35,3.25h0Z"/>
    <path class="cls-22" d="M582.62,200.39c21.75-1.45,20.26,31.69-1.9,28.34-14.47-2.19-15.05-27.21,1.9-28.34Z"/>
    <path class="cls-23" d="M391.01,202.14c21.73-4.4,23.93,28.63,3.36,28.39-17.54-.21-18.54-25.32-3.36-28.39Z"/>
    <path class="cls-15" d="M451.5,144.13c-7.18,7.6-21.01,4.44-23.96-5.63-4.48-15.24,14.14-25.59,24.47-13.99,4.7,5.29,4.29,14.53-.5,19.61h-.01Z"/>
    <path class="cls-4" d="M581.9,176.7c-9.56,12.33-30.93.67-24.03-15.01,8.42-19.15,37.71-2.64,24.03,15.01Z"/>
    <path class="cls-1" d="M534.82,283.07c6.61-1.13,13.93,2.94,16,9.34,4.63,14.36-11.68,25.43-23.11,15.54-8.72-7.55-4.17-22.95,7.11-24.89h0Z"/>
    <path class="cls-14" d="M525.85,143.55c-3.86-3.87-5.08-10.27-3.22-15.36,5.52-15.16,30.34-10.93,27.45,8.23-1.62,10.77-16.92,14.44-24.23,7.12h0Z"/>
    <path class="cls-18" d="M452.67,287.78c3.72,3.72,4.97,10,3.41,14.96-4.83,15.31-30.59,11.84-27.63-7.83,1.62-10.77,16.92-14.44,24.23-7.12h-.01Z"/>
    <path class="cls-25" d="M417.14,179.07c-4.02,3.86-10.15,5.13-15.35,3.23-15.24-5.55-10.73-30.32,8.23-27.45,10.64,1.61,14.6,17.03,7.12,24.22Z"/>
    <path class="cls-5" d="M605.24,285.06c-3.92,3.76-10.85,3.33-14.35-.7-6.9-7.95,1.84-20.64,11.86-15.93,5.87,2.76,7.14,12.17,2.49,16.63Z"/>
    <path class="cls-21" d="M496.2,84.11c6.01,6.66-.27,17.37-9.23,15.92-2.97-.48-7.51-3.84-8.23-6.9-2.62-11.16,10.57-16.65,17.46-9.02h0Z"/>
    <path class="cls-6" d="M378.17,269.08c2.86-.59,6.27-.24,8.56,1.66,3.59,2.97,5.42,8.66,3.11,12.92-5.02,9.29-19.46,5.64-18.51-5.68.27-3.21,3.62-8.24,6.84-8.89h0Z"/>
    <path class="cls-24" d="M482.89,347.22c-2.99-2.68-3.1-3.75-2.66-8.11.38-3.7,5.84-7.77,9.59-7.89,13.77-.44,14.23,21.51-1.76,19.28-2.78-.39-3.5-1.78-5.18-3.28h.01Z"/>
    <path class="cls-7" d="M377.61,143.91c14.39-3.29,17.1,18.41,3.17,19.52-12.08.97-13.9-17.06-3.17-19.52Z"/>
    <path class="cls-19" d="M594.22,142.72c11.46-2.91,17.68,11.01,9.17,17.32-8.27,6.14-19.47-3.57-14.71-12.38.71-1.32,4.16-4.59,5.54-4.94h0Z"/>
  </g>
</svg>