<?xml version="1.0" encoding="UTF-8"?>
<svg id="Layer_2" data-name="Layer 2" xmlns="http://www.w3.org/2000/svg" xmlns:xlink="http://www.w3.org/1999/xlink" viewBox="0 0 478.82 407.66">
  <defs>
    <style>
      .cls-1 {
        fill: url(#radial-gradient-10);
      }

      .cls-2 {
        fill: #d33f7c;
      }

      .cls-3 {
        fill: url(#linear-gradient-2);
      }

      .cls-4 {
        fill: url(#radial-gradient-9);
      }

      .cls-5 {
        fill: url(#radial-gradient-14);
      }

      .cls-6 {
        fill: url(#radial-gradient-16);
      }

      .cls-7 {
        fill: url(#radial-gradient-18);
      }

      .cls-8 {
        fill: url(#radial-gradient-5);
      }

      .cls-9 {
        fill: url(#radial-gradient);
      }

      .cls-10 {
        fill: url(#radial-gradient-3);
      }

      .cls-11 {
        fill: url(#radial-gradient-11);
      }

      .cls-12 {
        fill: url(#radial-gradient-8);
      }

      .cls-13 {
        fill: url(#radial-gradient-2);
      }

      .cls-14 {
        fill: url(#radial-gradient-4);
      }

      .cls-15 {
        fill: url(#radial-gradient-12);
      }

      .cls-16 {
        fill: url(#radial-gradient-15);
      }

      .cls-17 {
        fill: url(#radial-gradient-6);
      }

      .cls-18 {
        fill: url(#radial-gradient-7);
      }

      .cls-19 {
        fill: url(#radial-gradient-17);
      }

      .cls-20 {
        fill: url(#radial-gradient-13);
      }

      .cls-21 {
        fill: url(#linear-gradient);
      }
    </style>
    <linearGradient id="linear-gradient" x1="273.46" y1="180.96" x2="194.83" y2="156.96" gradientTransform="translate(0 410) scale(1 -1)" gradientUnits="userSpaceOnUse">
      <stop offset="0" stop-color="#fff"/>
      <stop offset=".17" stop-color="#fff" stop-opacity=".81"/>
      <stop offset=".58" stop-color="#d064c5" stop-opacity=".38"/>
      <stop offset=".87" stop-color="#f174b3" stop-opacity=".11"/>
      <stop offset="1" stop-color="#ff7bac" stop-opacity="0"/>
    </linearGradient>
    <linearGradient id="linear-gradient-2" x1="194.93" y1="215.83" x2="284.92" y2="215.83" gradientTransform="translate(0 410) scale(1 -1)" gradientUnits="userSpaceOnUse">
      <stop offset="0" stop-color="#fff"/>
      <stop offset=".17" stop-color="#fff" stop-opacity=".81"/>
      <stop offset=".58" stop-color="#d064c5" stop-opacity=".38"/>
      <stop offset=".87" stop-color="#f174b3" stop-opacity=".11"/>
      <stop offset="1" stop-color="#ff7bac" stop-opacity="0"/>
    </linearGradient>
    <radialGradient id="radial-gradient" cx="230.43" cy="208.25" fx="230.43" fy="208.25" r="121.94" gradientUnits="userSpaceOnUse">
      <stop offset="0" stop-color="#f1f2f9"/>
      <stop offset="1" stop-color="#43203c"/>
    </radialGradient>
    <radialGradient id="radial-gradient-2" cx="230.43" fx="230.43" r="121.94" xlink:href="#radial-gradient"/>
    <radialGradient id="radial-gradient-3" cx="230.43" fx="230.43" r="121.94" xlink:href="#radial-gradient"/>
    <radialGradient id="radial-gradient-4" cx="230.43" fx="230.43" r="121.94" xlink:href="#radial-gradient"/>
    <radialGradient id="radial-gradient-5" cx="230.43" fx="230.43" r="121.94" xlink:href="#radial-gradient"/>
    <radialGradient id="radial-gradient-6" r="121.94" xlink:href="#radial-gradient"/>
    <radialGradient id="radial-gradient-7" r="121.94" xlink:href="#radial-gradient"/>
    <radialGradient id="radial-gradient-8" r="121.94" xlink:href="#radial-gradient"/>
    <radialGradient id="radial-gradient-9" cx="230.43" fx="230.43" r="121.94" xlink:href="#radial-gradient"/>
    <radialGradient id="radial-gradient-10" cx="230.43" fx="230.43" r="121.94" xlink:href="#radial-gradient"/>
    <radialGradient id="radial-gradient-11" cx="230.43" fx="230.43" r="121.94" xlink:href="#radial-gradient"/>
    <radialGradient id="radial-gradient-12" cx="230.43" fx="230.43" r="121.94" xlink:href="#radial-gradient"/>
    <radialGradient id="radial-gradient-13" cx="230.43" fx="230.43" r="121.94" xlink:href="#radial-gradient"/>
    <radialGradient id="radial-gradient-14" r="121.94" xlink:href="#radial-gradient"/>
    <radialGradient id="radial-gradient-15" cx="230.43" fx="230.43" r="121.94" xlink:href="#radial-gradient"/>
    <radialGradient id="radial-gradient-16" r="121.94" xlink:href="#radial-gradient"/>
    <radialGradient id="radial-gradient-17" cx="230.43" fx="230.43" r="121.94" xlink:href="#radial-gradient"/>
    <radialGradient id="radial-gradient-18" r="121.94" xlink:href="#radial-gradient"/>
  </defs>
  <path class="cls-21" d="M278.43,258.28c-15.26,24.96-50.62,28.46-71.08,7.96-.51-.49-2.27-2.79-2.83-3.52-10.47-13.53-13.07-31.78-5.08-47.15-.02-.44-.07-.86-.19-1.26,1.57,3.44,3.87,7.36,7.21,10.7-1.52-.65-1.4,3.16-1.52,3.95-4.43,33.16,32.49,53.93,57.93,32.96,15.18-12.5,16.59-35.31,3.81-50.04-3.35-3.87-10.44-8.66-15.47-9.72-.11-.02-.23-.05-.35-.05,1.66-2.15,2.62-4.84,2.62-7.76,0-.52-.04-1.04-.11-1.57,0,0,.09.02.24.07,2.02.63,3.96,1.34,5.85,2.17.07,0,.12.05.19.09.56.24,1.12.51,1.66.79.42.21.86.44,1.29.68,1.42.77,2.92,1.68,4.43,2.74.09.05.19.12.28.19.3.21.59.44.91.68,1.64,1.2,3.3,2.62,4.88,4.26.01,0,.01,0,.01,0,2.81,2.85,5.41,6.38,7.38,10.65l1.22,2.94h0l.14.36c4.94,13.18,3.91,27.86-3.44,39.88h.02Z"/>
  <path class="cls-2" d="M253.48,234.39c0,7.09-5.76,12.85-12.87,12.85-4.03,0-7.65-1.87-9.99-4.8-.03-.02-.05-.03-.07-.07-.33-.4-.65-.84-.91-1.31-.16-.24-.3-.49-.42-.73-.07-.1-.12-.21-.16-.33-.19-.44-.38-.93-.58-1.36-.47-1.33-.73-2.76-.73-4.24,0-2.44.68-4.71,1.87-6.65,2.23-3.72,6.32-6.22,10.98-6.22,7.11,0,12.87,5.76,12.87,12.87h.01Z"/>
  <path class="cls-2" d="M253.48,194.34c0,2.92-.96,5.6-2.62,7.75-2.34,3.11-6.06,5.1-10.25,5.1-7.09,0-12.85-5.76-12.85-12.85s5.76-12.87,12.85-12.87c6.58,0,11.99,4.94,12.76,11.3.07.52.1,1.05.1,1.57h0Z"/>
  <path class="cls-3" d="M282.11,210.65c-.79,1.89-1.78,2.15-1.61,4.45-1.97-4.28-4.57-7.8-7.39-10.65.59.24,1.1.17,1.36-.51,4-16.29-3.72-33.43-18.59-40.91-9.11-4.57-20.32-4.77-29.79-1-16.78,6.69-25.75,26.38-20.04,43.42,3.21,9.64,11.02,18.17,20.71,21.58.73.26,1.9.66,2.86.7-1.19,1.94-1.87,4.21-1.87,6.65,0,1.48.26,2.92.73,4.24-.28-.59-.52-1.1-.73-1.24-6.93-1.66-13.13-5.34-18.49-9.93-1.01-.77-1.94-1.59-2.81-2.46-3.33-3.33-5.64-7.26-7.21-10.7-2.06-4.54-2.83-8.24-2.9-8.68-4.94-19.64,3.32-40.26,21.63-50.32,23.85-13.11,54.16-2.13,64.08,23.17,3.67,9.32,3.96,22.87.05,32.18h.01Z"/>
  <g id="Layer_2-2" data-name="Layer 2-2">
    <path class="cls-9" d="M228.81,131.87c-7.22-5.44-5.91-19.11,2.17-23.29,15-7.77,28.85,8.98,19.15,21.48-4.96,6.39-15.15,6.46-21.33,1.81h0Z"/>
    <path class="cls-13" d="M146.73,254.05c9.25-11.93,30.39-1.71,24.02,14.99-7.81,20.45-37.95,2.98-24.02-14.99Z"/>
    <path class="cls-10" d="M249.92,299.46c11.33,9.16,1.59,29.57-14.34,24.51-12.33-3.92-13.76-20.95-1.89-26.34,5.32-2.41,11.6-1.91,16.22,1.82h.01Z"/>
    <path class="cls-14" d="M332.04,251.69c7.71,7.99,3.35,23.82-8.21,24.86-17.87,1.6-22.13-22.38-7.14-28.1,5.05-1.93,11.58-.67,15.35,3.25h0Z"/>
    <path class="cls-8" d="M332.73,200.39c21.75-1.45,20.26,31.69-1.9,28.34-14.47-2.19-15.05-27.21,1.9-28.34Z"/>
    <path class="cls-17" d="M141.12,202.14c21.73-4.4,23.93,28.63,3.36,28.39-17.54-.21-18.54-25.32-3.36-28.39Z"/>
    <path class="cls-18" d="M201.61,144.13c-7.18,7.6-21.01,4.44-23.96-5.63-4.48-15.24,14.14-25.59,24.47-13.99,4.7,5.29,4.29,14.53-.5,19.61h-.01Z"/>
    <path class="cls-12" d="M332.01,176.7c-9.56,12.33-30.93.67-24.03-15.01,8.42-19.15,37.71-2.64,24.03,15.01Z"/>
    <path class="cls-4" d="M284.93,283.07c6.61-1.13,13.93,2.94,16,9.34,4.63,14.36-11.68,25.43-23.11,15.54-8.72-7.55-4.17-22.95,7.11-24.89h0Z"/>
    <path class="cls-1" d="M275.96,143.55c-3.86-3.87-5.08-10.27-3.22-15.36,5.52-15.16,30.34-10.93,27.45,8.23-1.62,10.77-16.92,14.44-24.23,7.12h0Z"/>
    <path class="cls-11" d="M202.78,287.78c3.72,3.72,4.97,10,3.41,14.96-4.83,15.31-30.59,11.84-27.63-7.83,1.62-10.77,16.92-14.44,24.23-7.12h-.01Z"/>
    <path class="cls-15" d="M167.25,179.07c-4.02,3.86-10.15,5.13-15.35,3.23-15.24-5.55-10.73-30.32,8.23-27.45,10.64,1.61,14.6,17.03,7.12,24.22Z"/>
    <path class="cls-20" d="M355.35,285.06c-3.92,3.76-10.85,3.33-14.35-.7-6.9-7.95,1.84-20.64,11.86-15.93,5.87,2.76,7.14,12.17,2.49,16.63Z"/>
    <path class="cls-5" d="M246.31,84.11c6.01,6.66-.27,17.37-9.23,15.92-2.97-.48-7.51-3.84-8.23-6.9-2.62-11.16,10.57-16.65,17.46-9.02h0Z"/>
    <path class="cls-16" d="M128.28,269.08c2.86-.59,6.27-.24,8.56,1.66,3.59,2.97,5.42,8.66,3.11,12.92-5.02,9.29-19.46,5.64-18.51-5.68.27-3.21,3.62-8.24,6.84-8.89h0Z"/>
    <path class="cls-6" d="M233,347.22c-2.99-2.68-3.1-3.75-2.66-8.11.38-3.7,5.84-7.77,9.59-7.89,13.77-.44,14.23,21.51-1.76,19.28-2.78-.39-3.5-1.78-5.18-3.28h.01Z"/>
    <path class="cls-19" d="M127.72,143.91c14.39-3.29,17.1,18.41,3.17,19.52-12.08.97-13.9-17.06-3.17-19.52Z"/>
    <path class="cls-7" d="M344.33,142.72c11.46-2.91,17.68,11.01,9.17,17.32-8.27,6.14-19.47-3.57-14.71-12.38.71-1.32,4.16-4.59,5.54-4.94h0Z"/>
  </g>
</svg>